<svg aria-hidden="true" style="position:absolute;width:0;height:0;overflow:hidden" xmlns="http://www.w3.org/2000/svg"><defs><symbol id="icon-icon-send" viewBox="0 0 32 32"><path fill="#fff" style="fill:var(--color1, #fff)" d="M32 0 0 18l10.227 3.787L26 7 14.003 23.187l.009.003-.012-.003V32l5.735-6.691L27.002 28l4.999-28z"/></symbol><symbol id="icon-icon-convert" viewBox="0 0 43 32"><path d="M37.333 0h-32c-2.2 0-3.981 1.8-3.981 4l-.019 24c0 2.2 1.8 4 4 4h32c2.2 0 4-1.8 4-4V4c0-2.2-1.8-4-4-4zm-.8 8.501-14.139 8.837a2.02 2.02 0 0 1-2.129-.005l.009.005-14.141-8.84A1.7 1.7 0 1 1 7.94 5.621l-.006-.004 13.4 8.381 13.4-8.381a1.7 1.7 0 1 1 1.808 2.876l-.008.004z"/></symbol><symbol id="icon-icon-name" viewBox="0 0 32 32"><path d="M16 16a8 8 0 0 0 0-16 8 8 0 0 0 0 16zm0 4c-5.339 0-16 2.68-16 8v2c0 1.099.901 2 2 2h28c1.099 0 2-.901 2-2v-2c0-5.32-10.661-8-16-8z"/></symbol><symbol id="icon-icon-phone" viewBox="0 0 32 32"><path d="m27.419 20.853-4.201-.48a3.28 3.28 0 0 0-2.713.941l-3.045 3.045c-4.718-2.435-8.467-6.185-10.835-10.764l-.065-.139L9.623 10.4a3.281 3.281 0 0 0 .94-2.729l.002.016-.48-4.169A3.314 3.314 0 0 0 6.798.592H3.933C2.063.587.509 2.142.623 4.009c.878 14.126 12.176 25.408 26.286 26.286 1.867.114 3.424-1.44 3.424-3.31v-2.878a3.279 3.279 0 0 0-2.897-3.256l-.015-.001z"/></symbol></defs></svg>